# xmcd
#
# Track frame offsets:
#	182
#	22337
#	35537
#	47662
#	67810
#	80150
#	90282
#	111540
#	121842
#	134902
#	153807
#	163802
#
# Disc length: 2367 seconds
#
# Revision: 1
# Processed by: cddbd v1.4PL0 Copyright (c) Steve Scherf et al.
# Submitted via: audiograbber 1.82.02
#
DISCID=a2093d0c
DTITLE=Amalia Rodrigues - Fado Portugues
DYEAR=1970
DGENRE=Fado
TTITLE0=Fado Portugues
TTITLE1=Cantiga de Amigo
TTITLE2=Si, Si, Si
TTITLE3=Erros meus
TTITLE4=Nome de Rua
TTITLE5=Na Esquina de Ver o Mar
TTITLE6=Gaivota
TTITLE7=Verde, Verde
TTITLE8=Paresito Faraon
TTITLE9=Sombra
TTITLE10=Fado Corrido
TTITLE11=Ai Mouraria
EXTD=
EXTT0=
EXTT1=
EXTT2=
EXTT3=
EXTT4=
EXTT5=
EXTT6=
EXTT7=
EXTT8=
EXTT9=
EXTT10=
EXTT11=
PLAYORDER=
